<svg width="76" height="76" viewBox="0 0 76 76" fill="none" xmlns="http://www.w3.org/2000/svg">
<path d="M37.9998 37L35.7061 39.4136V69.0403C35.7061 70.6186 36.1824 72.1476 37.0556 73.4353C37.5057 74.0993 38.4939 74.0993 38.9442 73.4353C39.8174 72.1476 40.2937 70.6186 40.2937 69.0403V39.4136L37.9998 37Z" fill="#ACD5DF"/>
<path d="M35.7063 35.4185V44.4802C36.4609 44.5547 37.226 44.4802 38.0001 44.4802C38.7741 44.4802 39.5392 44.5547 40.2938 44.4802V35.4185H35.7063Z" fill="#93B7C0"/>
<path d="M38 3V40.006C48.2189 40.006 56.503 31.7219 56.503 21.503C56.503 11.2842 48.2189 3 38 3Z" fill="#2A6128"/>
<path d="M51.9156 21.503C51.9156 11.2842 45.6854 3 38.0001 3C27.7812 3 19.4971 11.2842 19.4971 21.503C19.4971 31.7219 27.7812 40.006 38.0001 40.006C45.6854 40.006 51.9156 31.7219 51.9156 21.503Z" fill="#286A25"/>
<path d="M31.001 18C32.6578 18 34.001 16.6569 34.001 15C34.001 13.3431 32.6578 12 31.001 12C29.3441 12 28.001 13.3431 28.001 15C28.001 16.6569 29.3441 18 31.001 18Z" fill="#4D9649"/>
</svg>
